<?xml version="1.0" encoding="iso-8859-1"?>
<!-- Uploaded to: SVG Repo, www.svgrepo.com, Generator: SVG Repo Mixer Tools -->
<svg height="800px" width="800px" version="1.1" id="Layer_1" xmlns="http://www.w3.org/2000/svg" xmlns:xlink="http://www.w3.org/1999/xlink" 
	 viewBox="0 0 512 512" xml:space="preserve">
<path style="fill:#B6E892;" d="M488.727,0c-12.853,0-23.273,10.42-23.273,23.273v176.543L272.457,6.817
	c-6.654-6.658-16.669-8.645-25.363-5.046c-8.696,3.603-14.367,12.088-14.367,21.501v176.543L39.73,6.817
	C33.076,0.16,23.062-1.829,14.368,1.772C5.672,5.375,0.001,13.86,0.001,23.273v232.727v232.727c0,9.413,5.669,17.898,14.367,21.501
	c2.878,1.193,5.903,1.773,8.901,1.773c6.056,0,12.009-2.364,16.46-6.817l192.999-192.997v176.54c0,9.413,5.669,17.898,14.367,21.501
	c2.878,1.193,5.903,1.773,8.901,1.773c6.056,0,12.009-2.364,16.46-6.817l192.999-192.997v176.54
	c0,12.853,10.42,23.273,23.273,23.273c12.853,0,23.273-10.42,23.273-23.273V256.001v-0.002V23.273
	C511.999,10.42,501.581,0,488.727,0z"/>
<path style="fill:#7ED63E;" d="M0.001,488.726c0,9.413,5.669,17.898,14.367,21.501c2.878,1.193,5.903,1.773,8.901,1.773
	c6.056,0,12.009-2.364,16.46-6.817l192.999-192.997v176.54c0,9.413,5.669,17.898,14.367,21.501c2.878,1.193,5.903,1.773,8.901,1.773
	c6.056,0,12.009-2.364,16.46-6.817l192.999-192.997v176.54c0,12.853,10.42,23.273,23.273,23.273
	c12.853,0,23.273-10.42,23.273-23.273V256.001v-0.002H0.001V488.726z"/>
</svg>